# Blender v2.79 (sub 0) OBJ File: 'mining_ship.blend'
# www.blender.org
mtllib miner.mtl
o Cube
v -1.026676 -0.661328 2.088382
v -1.143091 -0.764278 -2.836859
v 1.143090 -0.764278 -2.836859
v 1.026676 -0.661328 2.088383
v -0.901951 0.737106 1.700418
v -0.260503 0.840056 -1.223480
v 0.260503 0.840056 -1.223480
v 0.901950 0.737106 1.700419
v -1.143090 -0.764278 2.116943
v 1.143090 -0.764278 2.116944
v -0.260503 0.840056 -0.705849
v 0.260503 0.840056 -0.705849
v -1.026676 -0.661328 1.994532
v 1.026676 -0.661328 1.994533
v -0.901951 0.737106 1.606568
v 0.901950 0.737106 1.606569
v -1.000000 0.840056 -2.647026
v 1.000000 0.840056 -2.647023
v 1.000000 0.840056 1.671858
v -1.000000 0.840056 1.671857
v -0.216868 1.193240 -1.180128
v 0.216868 1.193240 -1.180128
v 0.216868 1.193240 -0.749202
v -0.216868 1.193240 -0.749202
v -0.216868 1.729599 -1.117020
v 0.216868 1.729599 -1.117020
v 0.216868 1.424888 -0.812309
v -0.216868 1.424888 -0.812309
v -0.216868 2.111677 -0.645694
v 0.216868 2.111677 -0.645694
v 0.216868 1.680751 -0.645694
v -0.216868 1.680751 -0.645694
v -0.150506 2.045745 -0.298853
v 0.150506 2.045745 -0.298853
v 0.150506 1.746683 -0.298853
v -0.150506 1.746683 -0.298853
v -0.106117 2.001644 0.673543
v 0.106118 2.001644 0.673543
v 0.106117 1.790784 0.673543
v -0.106117 1.790784 0.673543
v -0.222096 2.116872 0.744412
v 0.222097 2.116871 0.744412
v 0.222096 1.675556 0.744412
v -0.222096 1.675557 0.744412
v -0.057486 1.953328 0.875780
v 0.057487 1.953328 0.875780
v 0.057486 1.839100 0.875780
v -0.057486 1.839100 0.875780
v 0.000000 -0.764278 2.116943
v -0.000000 -0.764278 -2.836859
v 0.000000 0.840056 -2.647025
v -0.000000 0.840056 1.671857
v 0.000000 -0.661328 2.088382
v -0.000000 0.737106 1.700418
v 0.000000 -0.661328 1.994533
v -0.000000 0.737106 1.606569
v 0.000000 0.840056 -1.223480
v -0.000000 0.840056 -0.705849
v 0.000000 1.193240 -1.180128
v -0.000000 1.193240 -0.749202
v 0.000000 1.729599 -1.117020
v -0.000000 1.424888 -0.812309
v 0.000000 2.111677 -0.645694
v -0.000000 1.680751 -0.645694
v 0.000000 2.045745 -0.298853
v -0.000000 1.746683 -0.298853
v 0.000000 2.001644 0.673543
v 0.000000 1.790784 0.673543
v 0.000000 2.116872 0.744412
v 0.000000 1.675557 0.744412
v 0.000000 1.953328 0.875780
v 0.000000 1.839100 0.875780
v -1.236562 -0.076059 -1.212970
v -1.236562 -0.076059 -2.873219
v -1.651624 -0.491121 -1.212970
v -1.651624 -0.491121 -2.873218
v -1.236562 -0.906183 -1.212970
v -1.236562 -0.906183 -2.873219
v -0.821500 -0.491121 -1.212970
v -0.821500 -0.491121 -2.873219
v 1.236561 -0.076059 -1.212970
v 1.236561 -0.076059 -2.873219
v 1.651623 -0.491121 -1.212970
v 1.651623 -0.491121 -2.873219
v 1.236561 -0.906183 -1.212970
v 1.236561 -0.906183 -2.873219
v 0.821499 -0.491121 -1.212970
v 0.821499 -0.491121 -2.873219
vt 0.747882 0.764207
vt 0.571268 0.941934
vt 0.545996 0.764207
vt 0.390625 -0.000000
vt 0.437500 0.437500
vt 0.390625 0.437500
vt 0.578125 0.593750
vt 0.968750 0.515625
vt 0.968750 0.593750
vt 0.515625 0.296875
vt 0.921875 0.437500
vt 0.968750 0.296875
vt 0.921875 0.437500
vt 0.515625 0.296875
vt 0.968750 0.296875
vt 0.000000 0.906250
vt 0.062500 0.953125
vt 0.000000 0.953125
vt 0.437500 -0.000000
vt 0.390625 0.437500
vt 0.437500 0.437500
vt 0.390625 0.437500
vt 0.390625 -0.000000
vt 0.437500 -0.000000
vt 0.390625 0.437500
vt 0.437500 0.437500
vt 0.390625 -0.000000
vt 0.437500 -0.000000
vt 0.187500 0.140625
vt 0.375000 0.437500
vt 0.187500 0.437500
vt 0.437500 0.437500
vt 0.390625 -0.000000
vt 0.390625 0.437500
vt 0.390625 -0.000000
vt 0.437500 0.437500
vt 0.390625 -0.000000
vt 0.437500 -0.000000
vt 0.796875 0.093750
vt 1.000000 0.140625
vt 0.796875 0.140625
vt 0.703125 0.093750
vt 1.000000 0.000000
vt 0.703125 0.093750
vt 0.375000 0.140625
vt 0.703125 0.140625
vt 1.000000 0.000000
vt 0.375000 -0.000000
vt 0.062500 0.812500
vt 0.109375 0.859375
vt 0.062500 0.859375
vt 0.000000 0.765625
vt -0.000000 0.812500
vt 0.000000 0.859375
vt 0.000000 1.000000
vt 0.062500 1.000000
vt 0.109375 0.812500
vt 0.171875 0.859375
vt 0.109375 0.953125
vt 0.109375 1.000000
vt 0.109375 0.906250
vt 0.062500 0.765625
vt 0.171875 0.953125
vt 0.218750 0.906250
vt 0.218750 0.953125
vt 0.171875 1.000000
vt 0.171875 0.906250
vt 0.109375 0.765625
vt 0.171875 0.812500
vt 0.218750 0.859375
vt 0.343750 0.812500
vt 0.343750 0.859375
vt 0.218750 0.765625
vt 0.218750 0.812500
vt 0.218750 1.000000
vt 0.343750 0.953125
vt 0.406250 0.906250
vt 0.406250 0.953125
vt 0.343750 1.000000
vt 0.343750 0.906250
vt 0.281250 0.578125
vt 0.171875 0.609375
vt 0.171875 0.578125
vt 0.343750 0.765625
vt 0.406250 0.812500
vt 0.406250 0.859375
vt 0.406250 1.000000
vt 0.109375 0.609375
vt 0.109375 0.578125
vt 0.000000 0.578125
vt 0.109375 0.546875
vt 0.000000 0.437500
vt 0.171875 0.546875
vt 0.000000 0.718750
vt 0.281250 0.718750
vt 0.406250 0.718750
vt 0.406250 0.765625
vt 0.281250 0.437500
vt 0.218750 0.718750
vt 0.171875 0.718750
vt 0.171875 0.765625
vt 0.109375 0.718750
vt 0.062500 0.718750
vt -0.000000 0.718750
vt 0.062500 0.906250
vt 0.375000 -0.000000
vt 0.796875 0.093750
vt 0.000000 0.437500
vt 0.437500 -0.000000
vt 0.390625 0.437500
vt 0.390625 -0.000000
vt 0.390625 -0.000000
vt 0.390625 0.437500
vt 0.578125 0.687500
vt 0.968750 0.687500
vt 0.390625 -0.000000
vt 0.437500 0.437500
vt 0.390625 0.437500
vt 0.924496 0.941934
vt 0.949768 0.764207
vt 0.281250 0.140625
vt 0.328125 0.000000
vt 0.328125 0.140625
vt 0.375000 0.140625
vt 0.281250 0.140625
vt 0.140625 -0.000000
vt 0.281250 -0.000000
vt 0.328125 -0.000000
vt 0.328125 0.140625
vt -0.000000 0.140625
vt 0.140625 0.000000
vt 0.140625 0.140625
vt 0.328125 0.140625
vt 0.281250 -0.000000
vt 0.281250 0.140625
vt 0.375000 0.000000
vt 0.328125 -0.000000
vt 0.281250 -0.000000
vt 0.140625 0.140625
vt 0.140625 -0.000000
vt 0.328125 0.140625
vt 0.375000 0.140625
vt 0.328125 0.000000
vt 0.140625 -0.000000
vt 0.000000 0.140625
vt -0.000000 0.000000
vt 0.747882 0.941934
vt 0.437500 -0.000000
vt 0.578125 0.515625
vt 0.546875 0.437500
vt 0.546875 0.437500
vt 0.390625 -0.000000
vt 0.375000 0.140625
vt 0.390625 0.437500
vt 0.390625 0.437500
vt 0.343750 0.718750
vt 0.390625 0.437500
vt 0.000000 0.140625
vt 0.437500 0.437500
vt 0.437500 -0.000000
vt 0.281250 0.000000
vt 0.375000 0.000000
vt 0.140625 0.140625
vt 0.000000 -0.000000
vt 0.281250 0.140625
vt 0.140625 0.140625
vn 0.0000 0.1175 -0.9931
vn 0.0000 -1.0000 -0.0000
vn 0.9960 0.0888 0.0000
vn -0.9960 0.0888 0.0000
vn -0.9925 0.1226 -0.0000
vn -0.0000 0.2673 0.9636
vn 0.9960 -0.0888 0.0000
vn -0.9960 -0.0888 0.0000
vn 0.0000 1.0000 0.0000
vn 0.0000 0.2628 0.9648
vn 0.9925 0.1226 0.0000
vn 0.0000 0.1218 0.9926
vn 0.0000 0.1218 -0.9926
vn 0.0000 -0.5457 0.8380
vn 0.0000 0.1169 -0.9931
vn -1.0000 0.0000 -0.0000
vn 1.0000 0.0000 0.0000
vn -0.9822 0.0000 0.1879
vn 0.0000 0.7768 -0.6297
vn 0.0000 -0.9990 0.0453
vn 0.9822 -0.0000 0.1879
vn 0.0000 -0.9824 0.1867
vn 0.0000 0.9824 0.1867
vn -0.5214 0.0000 -0.8533
vn 0.0000 0.9990 0.0453
vn -0.9990 0.0000 0.0456
vn 0.9990 -0.0000 0.0456
vn 0.0000 -0.6262 0.7796
vn 0.5214 -0.0000 -0.8533
vn 0.0000 -0.5239 -0.8518
vn 0.0000 0.5239 -0.8518
vn -0.0000 0.0000 1.0000
vn 0.0000 0.6262 0.7796
vn -0.6238 0.0000 0.7816
vn 0.6238 0.0000 0.7816
vn -0.7071 0.7071 0.0000
vn -0.7071 -0.7071 0.0000
vn -0.0000 0.0000 -1.0000
vn 0.7071 -0.7071 -0.0000
vn 0.7071 0.7071 -0.0000
usemtl Material
s off
f 50/1/1 18/2/1 3/3/1
f 5/4/2 56/5/2 54/6/2
f 50/7/2 10/8/2 49/9/2
f 3/10/3 19/11/3 10/12/3
f 20/13/4 2/14/4 9/15/4
f 11/16/5 21/17/5 6/18/5
f 1/19/6 49/20/6 53/21/6
f 1/19/6 20/22/6 9/23/6
f 4/24/6 19/25/6 8/26/6
f 8/26/6 52/27/6 54/28/6
f 55/29/6 16/30/6 56/31/6
f 5/32/7 13/33/7 15/34/7
f 8/26/8 14/35/8 4/24/8
f 4/36/9 55/37/9 53/38/9
f 7/39/9 51/40/9 57/41/9
f 12/42/9 18/43/9 7/39/9
f 11/44/9 52/45/9 58/46/9
f 11/44/9 17/47/9 20/48/9
f 23/49/10 62/50/10 60/51/10
f 7/52/11 23/49/11 12/53/11
f 58/54/12 23/49/12 60/51/12
f 57/55/13 21/17/13 59/56/13
f 27/57/14 64/58/14 62/50/14
f 59/56/15 25/59/15 61/60/15
f 21/17/16 28/61/16 25/59/16
f 22/62/17 27/57/17 23/49/17
f 29/63/18 36/64/18 33/65/18
f 25/59/19 63/66/19 61/60/19
f 25/59/16 32/67/16 29/63/16
f 26/68/17 31/69/17 27/57/17
f 66/70/20 39/71/20 68/72/20
f 31/69/21 34/73/21 35/74/21
f 64/58/22 35/74/22 66/70/22
f 63/66/23 33/65/23 65/75/23
f 37/76/24 44/77/24 41/78/24
f 65/75/25 37/76/25 67/79/25
f 33/65/26 40/80/26 37/76/26
f 34/73/27 39/71/27 35/74/27
f 70/81/28 47/82/28 72/83/28
f 38/84/29 43/85/29 39/71/29
f 39/71/30 70/86/30 68/72/30
f 37/76/31 69/87/31 67/79/31
f 72/83/32 46/88/32 71/89/32
f 69/90/33 45/91/33 71/89/33
f 41/92/34 48/93/34 45/91/34
f 42/94/35 47/82/35 43/95/35
f 69/90/33 46/88/33 42/94/33
f 72/83/32 45/91/32 48/93/32
f 38/84/31 69/96/31 42/97/31
f 40/80/30 70/86/30 44/77/30
f 70/81/28 48/93/28 44/98/28
f 65/99/25 38/84/25 34/73/25
f 63/100/23 34/73/23 30/101/23
f 64/58/22 36/64/22 32/67/22
f 66/70/20 40/80/20 36/64/20
f 61/102/19 30/101/19 26/68/19
f 59/103/15 26/68/15 22/62/15
f 28/61/14 64/58/14 32/67/14
f 57/104/13 22/62/13 7/52/13
f 58/54/12 24/105/12 11/16/12
f 60/51/10 28/61/10 24/105/10
f 12/42/9 52/45/9 19/106/9
f 6/107/9 51/40/9 17/47/9
f 53/21/9 13/33/9 1/19/9
f 15/108/6 55/29/6 56/31/6
f 5/109/6 52/110/6 20/111/6
f 4/36/6 49/112/6 10/113/6
f 2/114/2 49/9/2 9/115/2
f 54/116/2 16/117/2 8/118/2
f 17/119/1 50/1/1 2/120/1
f 73/121/36 76/122/36 75/123/36
f 76/122/37 77/124/37 75/123/37
f 76/125/38 80/126/38 78/127/38
f 77/124/39 80/128/39 79/129/39
f 80/128/40 73/121/40 79/129/40
f 75/130/32 79/131/32 73/132/32
f 83/133/40 82/134/40 81/135/40
f 83/133/39 86/136/39 84/137/39
f 86/138/38 82/139/38 84/140/38
f 87/141/37 86/136/37 85/142/37
f 81/135/36 88/143/36 87/141/36
f 87/144/32 83/145/32 81/146/32
f 50/1/1 51/147/1 18/2/1
f 5/4/2 15/148/2 56/5/2
f 50/7/2 3/149/2 10/8/2
f 3/10/3 18/150/3 19/11/3
f 20/13/4 17/151/4 2/14/4
f 11/16/5 24/105/5 21/17/5
f 1/19/6 9/23/6 49/20/6
f 1/19/6 5/32/6 20/22/6
f 4/24/6 10/152/6 19/25/6
f 8/26/6 19/25/6 52/27/6
f 55/29/6 14/153/6 16/30/6
f 5/32/7 1/19/7 13/33/7
f 8/26/8 16/154/8 14/35/8
f 4/36/9 14/155/9 55/37/9
f 7/39/9 18/43/9 51/40/9
f 12/42/9 19/106/9 18/43/9
f 11/44/9 20/48/9 52/45/9
f 11/44/9 6/107/9 17/47/9
f 23/49/10 27/57/10 62/50/10
f 7/52/11 22/62/11 23/49/11
f 58/54/12 12/53/12 23/49/12
f 57/55/13 6/18/13 21/17/13
f 27/57/14 31/69/14 64/58/14
f 59/56/15 21/17/15 25/59/15
f 21/17/16 24/105/16 28/61/16
f 22/62/17 26/68/17 27/57/17
f 29/63/18 32/67/18 36/64/18
f 25/59/19 29/63/19 63/66/19
f 25/59/16 28/61/16 32/67/16
f 26/68/17 30/101/17 31/69/17
f 66/70/20 35/74/20 39/71/20
f 31/69/21 30/101/21 34/73/21
f 64/58/22 31/69/22 35/74/22
f 63/66/23 29/63/23 33/65/23
f 37/76/24 40/80/24 44/77/24
f 65/75/25 33/65/25 37/76/25
f 33/65/26 36/64/26 40/80/26
f 34/73/27 38/84/27 39/71/27
f 70/81/28 43/95/28 47/82/28
f 38/84/29 42/97/29 43/85/29
f 39/71/30 43/85/30 70/86/30
f 37/76/31 41/78/31 69/87/31
f 72/83/32 47/82/32 46/88/32
f 69/90/33 41/92/33 45/91/33
f 41/92/34 44/98/34 48/93/34
f 42/94/35 46/88/35 47/82/35
f 69/90/33 71/89/33 46/88/33
f 72/83/32 71/89/32 45/91/32
f 38/84/31 67/156/31 69/96/31
f 40/80/30 68/72/30 70/86/30
f 70/81/28 72/83/28 48/93/28
f 65/99/25 67/156/25 38/84/25
f 63/100/23 65/99/23 34/73/23
f 64/58/22 66/70/22 36/64/22
f 66/70/20 68/72/20 40/80/20
f 61/102/19 63/100/19 30/101/19
f 59/103/15 61/102/15 26/68/15
f 28/61/14 62/50/14 64/58/14
f 57/104/13 59/103/13 22/62/13
f 58/54/12 60/51/12 24/105/12
f 60/51/10 62/50/10 28/61/10
f 12/42/9 58/46/9 52/45/9
f 6/107/9 57/41/9 51/40/9
f 53/21/9 55/157/9 13/33/9
f 15/108/6 13/158/6 55/29/6
f 5/109/6 54/159/6 52/110/6
f 4/36/6 53/38/6 49/112/6
f 2/114/2 50/7/2 49/9/2
f 54/116/2 56/160/2 16/117/2
f 17/119/1 51/147/1 50/1/1
f 73/121/36 74/161/36 76/122/36
f 76/122/37 78/162/37 77/124/37
f 76/125/38 74/163/38 80/126/38
f 77/124/39 78/162/39 80/128/39
f 80/128/40 74/161/40 73/121/40
f 75/130/32 77/164/32 79/131/32
f 83/133/40 84/137/40 82/134/40
f 83/133/39 85/142/39 86/136/39
f 86/138/38 88/165/38 82/139/38
f 87/141/37 88/143/37 86/136/37
f 81/135/36 82/134/36 88/143/36
f 87/144/32 85/166/32 83/145/32
