# Blender v2.79 (sub 0) OBJ File: 'fighter.blend'
# www.blender.org
mtllib fighter.mtl
o Cube
v -0.000001 -0.500000 1.000001
v 0.999999 0.000000 1.000001
v -1.000000 0.000000 1.000000
v -0.000001 0.500000 1.000000
v -0.000001 0.000000 -1.000000
vt 0.000000 0.000000
vt 1.000000 0.500000
vt 1.000000 0.000000
vt 0.000000 0.000000
vt 1.000000 1.000000
vt 1.000000 0.531250
vt 0.531250 0.765625
vt 0.000000 0.500000
vt 0.531250 0.765625
vn -0.4364 -0.8729 -0.2182
vn 0.4364 -0.8729 -0.2182
vn -0.0000 0.0000 1.0000
vn 0.4364 0.8729 -0.2182
vn -0.4364 0.8729 -0.2182
usemtl Material
s off
f 3/1/1 5/2/1 1/3/1
f 1/3/2 5/2/2 2/4/2
f 4/5/3 1/6/3 2/7/3
f 2/4/4 5/2/4 4/8/4
f 4/8/5 5/2/5 3/1/5
f 1/6/3 4/5/3 3/9/3
