# Blender v2.79 (sub 0) OBJ File: 'tanker.blend'
# www.blender.org
mtllib tanker.mtl
o Circle
v 0.012539 0.997328 -2.003444
v 0.512539 0.863353 -2.003444
v 0.878564 0.497328 -2.003444
v 1.012539 -0.002672 -2.003444
v 0.878564 -0.502672 -2.003444
v 0.512539 -0.868697 -2.003444
v 0.012539 -1.002672 -2.003444
v -0.487461 -0.868698 -2.003444
v -0.853487 -0.502672 -2.003444
v -0.987461 -0.002673 -2.003444
v -0.853487 0.497327 -2.003444
v -0.487462 0.863353 -2.003444
v 0.012539 0.997328 1.996556
v 0.512539 0.863353 1.996556
v 0.878564 0.497328 1.996556
v 1.012539 -0.002672 1.996556
v 0.878564 -0.502672 1.996556
v 0.512539 -0.868697 1.996556
v 0.012539 -1.002672 1.996556
v -0.487461 -0.868698 1.996556
v -0.853486 -0.502672 1.996556
v -0.987461 -0.002673 1.996556
v -0.853487 0.497327 1.996556
v -0.487461 0.863353 1.996556
v 0.012539 0.747328 2.246556
v 0.387539 0.646847 2.246556
v 0.662058 0.372328 2.246556
v 0.762539 -0.002672 2.246556
v 0.662058 -0.377672 2.246556
v 0.387539 -0.652191 2.246556
v 0.012539 -0.752672 2.246556
v -0.362461 -0.652191 2.246556
v -0.636980 -0.377672 2.246556
v -0.737461 -0.002672 2.246556
v -0.636980 0.372328 2.246556
v -0.362461 0.646847 2.246556
v 0.012539 0.747328 -2.253444
v 0.387539 0.646847 -2.253444
v 0.662058 0.372328 -2.253444
v 0.762539 -0.002672 -2.253444
v 0.662058 -0.377672 -2.253444
v 0.387539 -0.652191 -2.253444
v 0.012539 -0.752672 -2.253444
v -0.362461 -0.652191 -2.253444
v -0.636980 -0.377672 -2.253444
v -0.737461 -0.002672 -2.253444
v -0.636981 0.372328 -2.253444
v -0.362462 0.646847 -2.253444
v -1.138910 0.421764 -0.766166
v 0.512539 -0.868697 -0.766166
v 0.012539 -1.002672 -0.766166
v 0.878564 0.497328 -0.766166
v 1.012539 -0.002672 -0.766166
v -0.987461 -0.002673 -0.766166
v -0.853487 0.497327 -0.766166
v -0.487461 -0.868698 -0.766166
v 0.878564 -0.502672 -0.766166
v -0.487462 0.863353 -0.766166
v 0.012539 0.997328 -0.766166
v 0.512539 0.863353 -0.766166
v -0.853486 -0.502672 -0.766166
v -1.138910 0.421764 -2.003444
v -1.272884 -0.002672 -2.003444
v -1.272884 -0.002672 -0.766166
v 0.293789 0.484467 2.246556
v 0.012539 0.559828 2.246556
v 0.499678 0.278578 2.246556
v 0.575039 -0.002672 2.246556
v 0.499678 -0.283922 2.246556
v 0.293789 -0.489811 2.246556
v 0.012539 -0.565172 2.246556
v -0.268711 -0.489811 2.246556
v -0.474600 -0.283922 2.246556
v -0.549961 -0.002672 2.246556
v -0.474600 0.278578 2.246556
v -0.268711 0.484467 2.246556
v 0.293789 0.484467 2.366530
v 0.012539 0.559828 2.366530
v 0.499678 0.278578 2.366530
v 0.575039 -0.002672 2.366530
v 0.499678 -0.283922 2.366530
v 0.293789 -0.489811 2.366530
v 0.012539 -0.565172 2.366530
v -0.268711 -0.489811 2.366530
v -0.474600 -0.283922 2.366530
v -0.549961 -0.002672 2.366530
v -0.474600 0.278578 2.366530
v -0.268711 0.484467 2.366530
vt 0.589122 0.295844
vt 0.640952 0.019221
vt 0.640952 0.295844
vt 0.433633 0.295844
vt 0.485463 0.019221
vt 0.485463 0.295844
vt 0.174485 0.295844
vt 0.226315 0.019221
vt 0.226315 0.295844
vt 0.018997 0.295844
vt 0.070826 0.019221
vt 0.070826 0.295844
vt 0.537293 0.295844
vt 0.537293 0.019221
vt 0.278145 0.019221
vt 0.278145 0.295844
vt 0.329974 0.295844
vt 0.381804 0.019221
vt 0.381804 0.295844
vt 0.122656 0.019221
vt 0.122656 0.295844
vt 0.589122 0.019221
vt 0.329974 0.019221
vt 0.433633 0.019221
vt 0.174485 0.019221
vt 0.994175 0.168988
vt 0.922358 0.116071
vt 0.969786 0.087522
vt 0.689014 0.262419
vt 0.777991 0.273172
vt 0.750700 0.322051
vt 0.835510 0.343611
vt 0.888610 0.268583
vt 0.918534 0.315963
vt 0.740228 0.034010
vt 0.731990 0.123867
vt 0.683038 0.097968
vt 0.880788 0.076779
vt 0.908075 0.027888
vt 0.834039 0.286449
vt 0.926794 0.226095
vt 0.975751 0.252008
vt 0.719776 0.179446
vt 0.664636 0.180972
vt 0.824731 0.063509
vt 0.823250 0.006343
vt 0.939027 0.170510
vt 0.736436 0.233880
vt 0.770157 0.081383
vt 0.898893 0.130745
vt 0.633751 0.570227
vt 0.747272 0.611299
vt 0.673300 0.634480
vt 0.528584 0.768687
vt 0.626046 0.841189
vt 0.561717 0.879830
vt 0.976629 0.754931
vt 0.884411 0.832028
vt 0.901711 0.756522
vt 0.745680 0.535084
vt 0.822803 0.629147
vt 0.620775 0.691505
vt 0.603521 0.767052
vt 0.871435 0.953236
vt 0.950358 0.867849
vt 0.645788 0.960196
vt 0.757992 0.912134
vt 0.759594 0.988316
vt 0.943590 0.643769
vt 0.859558 0.563282
vt 0.554790 0.655692
vt 0.831934 0.889029
vt 0.682488 0.894334
vt 0.879222 0.682378
vt 0.122656 0.419729
vt 0.174485 0.419729
vt 0.433633 0.419729
vt 0.278145 0.419729
vt 0.329974 0.419729
vt 0.537292 0.419729
vt 0.589122 0.419729
vt 0.070826 0.419729
vt 0.381804 0.419729
vt 0.226315 0.419729
vt 0.485463 0.419729
vt 0.018997 0.419729
vt 0.020873 0.974073
vt 0.508760 0.857646
vt 0.508760 0.974073
vt 0.640952 0.419729
vt 0.020873 0.682141
vt 0.020873 0.857646
vt 0.610814 0.446509
vt 0.770070 0.503398
vt 0.798464 0.396299
vt 0.610814 0.446509
vt 0.770070 0.503398
vt 0.610776 0.553618
vt 0.508760 0.569592
vt 0.020873 0.569592
vt 0.832866 0.258226
vt 0.865258 0.232154
vt 0.873551 0.245135
vt 0.759900 0.219211
vt 0.791105 0.248535
vt 0.756557 0.136561
vt 0.867674 0.101423
vt 0.902224 0.213392
vt 0.747354 0.178317
vt 0.825909 0.091733
vt 0.911455 0.171635
vt 0.785212 0.104831
vt 0.793491 0.117818
vt 0.770144 0.143620
vt 0.860468 0.115071
vt 0.798308 0.234891
vt 0.832207 0.242672
vt 0.888630 0.206325
vt 0.762651 0.177700
vt 0.826573 0.107286
vt 0.896177 0.172247
vt 0.772879 0.211070
vt 0.885911 0.138889
vt 0.845990 0.500503
vt 0.886201 0.350437
vt 0.996057 0.460293
vt 0.018997 0.019221
vt 0.508760 0.682141
vt 0.610776 0.553618
vt 0.798464 0.396299
vt 0.972842 0.500503
vt 0.932631 0.523719
vt 0.886201 0.523719
vt 0.822775 0.460293
vt 0.822775 0.413862
vt 0.845990 0.373652
vt 0.932631 0.350437
vt 0.972842 0.373652
vt 0.996057 0.413862
vn 0.2588 -0.9659 -0.0000
vn 0.9659 0.2588 0.0000
vn -0.9659 0.2588 0.0000
vn -0.2588 -0.9659 0.0000
vn 0.9659 -0.2588 -0.0000
vn -0.7071 0.7071 0.0000
vn 0.2588 0.9659 -0.0000
vn -0.7071 -0.7071 0.0000
vn 0.7071 -0.7071 -0.0000
vn -0.2588 0.9659 0.0000
vn 0.7071 0.7071 -0.0000
vn -0.9659 -0.2588 0.0000
vn 0.6947 -0.1862 0.6947
vn -0.5086 0.5086 0.6947
vn 0.1862 0.6947 0.6947
vn -0.5086 -0.5086 0.6947
vn 0.5086 -0.5086 0.6947
vn -0.1862 0.6947 0.6947
vn 0.5086 0.5086 0.6947
vn -0.6947 -0.1862 0.6947
vn 0.1862 -0.6947 0.6947
vn 0.6947 0.1862 0.6947
vn -0.6947 0.1862 0.6947
vn -0.1862 -0.6947 0.6947
vn -0.0000 0.0000 1.0000
vn 0.1862 -0.6947 -0.6947
vn 0.6947 0.1862 -0.6947
vn -0.6947 0.1862 -0.6947
vn -0.1862 -0.6947 -0.6947
vn 0.6947 -0.1862 -0.6947
vn -0.5086 0.5086 -0.6947
vn 0.1862 0.6947 -0.6947
vn -0.5086 -0.5086 -0.6947
vn 0.5086 -0.5086 -0.6947
vn -0.1862 0.6947 -0.6947
vn 0.5086 0.5086 -0.6947
vn -0.6947 -0.1862 -0.6947
vn -0.2559 0.9667 0.0000
vn -0.9536 0.3010 0.0000
vn 0.0000 0.0000 -1.0000
vn -0.0000 -1.0000 0.0000
usemtl Material.001
s off
f 50/1/1 19/2/1 51/3/1
f 52/4/2 16/5/2 53/6/2
f 54/7/3 23/8/3 55/9/3
f 51/10/4 20/11/4 56/12/4
f 57/13/5 16/5/5 17/14/5
f 55/9/6 24/15/6 58/16/6
f 59/17/7 14/18/7 60/19/7
f 56/12/8 21/20/8 61/21/8
f 57/13/9 18/22/9 50/1/9
f 58/16/10 13/23/10 59/17/10
f 60/19/11 15/24/11 52/4/11
f 54/7/12 21/20/12 22/25/12
f 16/26/13 29/27/13 17/28/13
f 23/29/14 36/30/14 24/31/14
f 13/32/15 26/33/15 14/34/15
f 20/35/16 33/36/16 21/37/16
f 17/28/17 30/38/17 18/39/17
f 24/31/18 25/40/18 13/32/18
f 14/34/19 27/41/19 15/42/19
f 21/37/20 34/43/20 22/44/20
f 18/39/21 31/45/21 19/46/21
f 16/26/22 27/41/22 28/47/22
f 22/44/23 35/48/23 23/29/23
f 19/46/24 32/49/24 20/35/24
f 28/47/25 69/50/25 29/27/25
f 6/51/26 43/52/26 42/53/26
f 4/54/27 39/55/27 3/56/27
f 10/57/28 47/58/28 46/59/28
f 7/60/29 44/61/29 43/52/29
f 4/54/30 41/62/30 40/63/30
f 12/64/31 47/58/31 11/65/31
f 2/66/32 37/67/32 1/68/32
f 9/69/33 44/61/33 8/70/33
f 5/71/34 42/53/34 41/62/34
f 12/64/35 37/67/35 48/72/35
f 3/56/36 38/73/36 2/66/36
f 10/57/37 45/74/37 9/69/37
f 9/75/12 54/7/12 10/76/12
f 3/77/11 60/19/11 52/4/11
f 12/78/10 59/17/10 1/79/10
f 5/80/9 50/1/9 6/81/9
f 8/82/8 61/21/8 9/75/8
f 1/79/7 60/19/7 2/83/7
f 11/84/6 58/16/6 12/78/6
f 4/85/5 57/13/5 5/80/5
f 7/86/4 56/12/4 8/82/4
f 11/87/38 49/88/38 55/89/38
f 3/77/2 53/6/2 4/85/2
f 7/90/1 50/1/1 51/3/1
f 63/91/39 49/88/39 62/92/39
f 10/93/40 62/94/40 11/95/40
f 54/96/25 49/97/25 64/98/25
f 54/99/41 63/91/41 10/100/41
f 66/101/7 77/102/7 65/103/7
f 36/30/25 75/104/25 76/105/25
f 25/40/25 65/103/25 26/33/25
f 32/49/25 73/106/25 33/36/25
f 29/27/25 70/107/25 30/38/25
f 36/30/25 66/101/25 25/40/25
f 26/33/25 67/108/25 27/41/25
f 33/36/25 74/109/25 34/43/25
f 31/45/25 70/107/25 71/110/25
f 28/47/25 67/108/25 68/111/25
f 34/43/25 75/104/25 35/48/25
f 31/45/25 72/112/25 32/49/25
f 73/106/8 84/113/8 85/114/8
f 69/50/9 82/115/9 70/107/9
f 66/101/10 88/116/10 78/117/10
f 65/103/11 79/118/11 67/108/11
f 74/109/12 85/114/12 86/119/12
f 70/107/1 83/120/1 71/110/1
f 67/108/2 80/121/2 68/111/2
f 75/104/3 86/119/3 87/122/3
f 71/110/4 84/113/4 72/112/4
f 68/111/5 81/123/5 69/50/5
f 76/105/6 87/122/6 88/116/6
f 41/62/40 45/74/40 37/67/40
f 87/124/25 83/125/25 79/126/25
f 50/1/1 18/22/1 19/2/1
f 52/4/2 15/24/2 16/5/2
f 54/7/3 22/25/3 23/8/3
f 51/10/4 19/127/4 20/11/4
f 57/13/5 53/6/5 16/5/5
f 55/9/6 23/8/6 24/15/6
f 59/17/7 13/23/7 14/18/7
f 56/12/8 20/11/8 21/20/8
f 57/13/9 17/14/9 18/22/9
f 58/16/10 24/15/10 13/23/10
f 60/19/11 14/18/11 15/24/11
f 54/7/12 61/21/12 21/20/12
f 16/26/13 28/47/13 29/27/13
f 23/29/14 35/48/14 36/30/14
f 13/32/15 25/40/15 26/33/15
f 20/35/16 32/49/16 33/36/16
f 17/28/17 29/27/17 30/38/17
f 24/31/18 36/30/18 25/40/18
f 14/34/19 26/33/19 27/41/19
f 21/37/20 33/36/20 34/43/20
f 18/39/21 30/38/21 31/45/21
f 16/26/22 15/42/22 27/41/22
f 22/44/23 34/43/23 35/48/23
f 19/46/24 31/45/24 32/49/24
f 28/47/25 68/111/25 69/50/25
f 6/51/26 7/60/26 43/52/26
f 4/54/27 40/63/27 39/55/27
f 10/57/28 11/65/28 47/58/28
f 7/60/29 8/70/29 44/61/29
f 4/54/30 5/71/30 41/62/30
f 12/64/31 48/72/31 47/58/31
f 2/66/32 38/73/32 37/67/32
f 9/69/33 45/74/33 44/61/33
f 5/71/34 6/51/34 42/53/34
f 12/64/35 1/68/35 37/67/35
f 3/56/36 39/55/36 38/73/36
f 10/57/37 46/59/37 45/74/37
f 9/75/12 61/21/12 54/7/12
f 3/77/11 2/83/11 60/19/11
f 12/78/10 58/16/10 59/17/10
f 5/80/9 57/13/9 50/1/9
f 8/82/8 56/12/8 61/21/8
f 1/79/7 59/17/7 60/19/7
f 11/84/6 55/9/6 58/16/6
f 4/85/5 53/6/5 57/13/5
f 7/86/4 51/10/4 56/12/4
f 11/87/38 62/92/38 49/88/38
f 3/77/2 52/4/2 53/6/2
f 7/90/1 6/81/1 50/1/1
f 63/91/39 64/128/39 49/88/39
f 10/93/40 63/129/40 62/94/40
f 54/96/25 55/130/25 49/97/25
f 54/99/41 64/128/41 63/91/41
f 66/101/7 78/117/7 77/102/7
f 36/30/25 35/48/25 75/104/25
f 25/40/25 66/101/25 65/103/25
f 32/49/25 72/112/25 73/106/25
f 29/27/25 69/50/25 70/107/25
f 36/30/25 76/105/25 66/101/25
f 26/33/25 65/103/25 67/108/25
f 33/36/25 73/106/25 74/109/25
f 31/45/25 30/38/25 70/107/25
f 28/47/25 27/41/25 67/108/25
f 34/43/25 74/109/25 75/104/25
f 31/45/25 71/110/25 72/112/25
f 73/106/8 72/112/8 84/113/8
f 69/50/9 81/123/9 82/115/9
f 66/101/10 76/105/10 88/116/10
f 65/103/11 77/102/11 79/118/11
f 74/109/12 73/106/12 85/114/12
f 70/107/1 82/115/1 83/120/1
f 67/108/2 79/118/2 80/121/2
f 75/104/3 74/109/3 86/119/3
f 71/110/4 83/120/4 84/113/4
f 68/111/5 80/121/5 81/123/5
f 76/105/6 75/104/6 87/122/6
f 37/67/40 38/73/40 39/55/40
f 39/55/40 40/63/40 41/62/40
f 41/62/40 42/53/40 43/52/40
f 43/52/40 44/61/40 45/74/40
f 45/74/40 46/59/40 47/58/40
f 47/58/40 48/72/40 45/74/40
f 37/67/40 39/55/40 41/62/40
f 41/62/40 43/52/40 45/74/40
f 45/74/40 48/72/40 37/67/40
f 79/126/25 77/131/25 78/132/25
f 78/132/25 88/133/25 79/126/25
f 87/124/25 86/134/25 85/135/25
f 85/135/25 84/136/25 83/125/25
f 83/125/25 82/137/25 81/138/25
f 81/138/25 80/139/25 83/125/25
f 79/126/25 88/133/25 87/124/25
f 87/124/25 85/135/25 83/125/25
f 83/125/25 80/139/25 79/126/25
